<svg xmlns="http://www.w3.org/2000/svg" viewBox="0 0 400 135.94"><path fill-rule="evenodd" d="M229.96 3.158c-.267.413-1.176 2.917-2.019 5.564-1.408 4.42-1.726 4.91-3.91 6.015-1.307.661-2.515 1.384-2.684 1.606-.168.222-1.028.585-1.91.806-.882.222-2.072.92-2.644 1.552-.572.632-1.362 1.149-1.755 1.149-.394 0-1.206.541-1.805 1.203-.599.661-1.563 1.203-2.143 1.203-.58 0-3.655 1.739-6.834 3.864s-6.585 4.041-7.57 4.257c-3.583.787-16.198 14.268-18.798 20.09-1.521 3.404-.59 5.69 3.446 8.467 4.023 2.768 7.739 1.422 4.86-1.76-1.055-1.165-.673-2.118 3.148-7.851 1.37-2.056 12.783-12.436 15.771-14.343.827-.528 2.451-1.693 3.609-2.589 2.231-1.727 13.423-8.316 13.693-8.062.153.144-3.896 12.014-10.717 31.417-2.542 7.231-3.498 9.261-4.596 9.762-2.078.946-.542-2.587 1.847-4.25 1.061-.739-1.321-2.426-2.782-1.97-.745.233-1.49.59-1.656.793-.165.204-1.867 1.425-3.781 2.714-4.857 3.271-6.896 6.729-5.053 8.571.227.227.413.863.413 1.411 0 2.208 2.729 3.794 5.988 3.481 1.669-.161 3.035-.059 3.035.225 0 .285-.849 3.831-1.887 7.882-3.478 13.568-2.801 21.8 2.015 24.507 2.899 1.629 3.458 1.133 3.472-3.084.005-1.531.415-3.756.911-4.943.496-1.188.902-2.295.902-2.461 0-.166-.406-.145-.902.045-.534.205-.889.014-.871-.47.059-1.509 1.641-9.22 2.266-11.042.341-.992 1.655-5.114 2.92-9.159 2.111-6.747 2.451-7.411 4.106-8.037.993-.375 3.115-1.328 4.717-2.119 1.602-.79 3.245-1.437 3.651-1.437.606 0 15.231-7.118 18.399-8.955 1.702-.986 5.454-2.473 6.243-2.473.434 0 1.279-.542 1.877-1.203.599-.662 1.296-1.203 1.55-1.203.748 0 12.175-6.67 13.527-7.896.683-.62 1.456-1.127 1.717-1.127.262 0 1.222-.609 2.134-1.353.911-.744 2.295-1.76 3.075-2.256.78-.496 2.144-1.646 3.032-2.556.887-.91 1.911-1.654 2.274-1.654.364 0 .661-.393.661-.872 0-.48.866-2.156 1.925-3.725 1.475-2.185 1.984-3.674 2.179-6.368.232-3.206.421-3.608 2.136-4.545l1.881-1.029-1.99-.192c-1.897-.184-2.455-.733-2.743-2.701-.429-2.921-8.201-9.943-10.583-9.562-.615.098-1.279-.079-1.474-.394-.205-.332-2.38-.435-5.166-.244-4.196.288-4.811.203-4.811-.658 0-.729-.554-.988-2.106-.988-1.704 0-2.105.229-2.105 1.203 0 1.132-1.892 1.708-3.91 1.191-.33-.085-1.481-.109-2.556-.053s-1.955-.137-1.955-.43-1.421-.143-3.158.334c-1.737.476-4.23 1.127-5.54 1.447-1.31.319-2.664.814-3.008 1.1-.403.334-.659-.051-.72-1.085-.181-3.026-5.918-6.799-7.238-4.76m-161.088 7.94c-.331.14-2.158.561-4.06.937-1.902.375-3.801 1.024-4.219 1.443-.419.419-1.941.92-3.382 1.113-2.601.349-11.352 4.521-16.053 7.653-1.347.898-3.132 1.804-3.966 2.013-1.631.41-6.259 3.844-10.907 8.095-1.701 1.555-3.246 2.503-3.759 2.306-.48-.184-.872.003-.872.416 0 .817-4.058 5.227-4.81 5.227-.451 0-1.389 2.288-1.281 3.125.03.229-.778 1.01-1.794 1.734C9.968 47.866 1.803 60.407 1.807 63.532c.006 4.469 3.932 7.646 7.197 5.822 3.084-1.723 4.262-3.79 2.16-3.79H9.549l1.69-3.105c4.2-7.717 19.135-22.671 29.892-29.929l4.705-3.175-.396 2.014c-1.416 7.201-3.89 16.314-6.426 23.669-1.752 5.078-4.371 14.723-5.637 20.751-1.263 6.018-1.645 6.613-3.288 5.126-1.184-1.072-1.217-1.068-1.217.142 0 .834-1.238 2.14-3.759 3.965-6.024 4.362-10.234 8.553-9.865 9.821.176.603.62 2.26.987 3.681 1.529 5.913 13.069 6.005 21.658.174.828-.562 3.536-1.788 6.017-2.723 2.481-.935 5.647-2.544 7.035-3.574 1.389-1.031 3.899-2.687 5.579-3.679 1.679-.993 4.428-2.82 6.107-4.06 1.68-1.241 3.432-2.256 3.894-2.256.462 0 1.856-.902 3.097-2.005 1.242-1.103 2.676-2.156 3.188-2.34 3.017-1.087 19.43-15.86 21.698-19.531 1.062-1.718 1.594-2.057 2.923-1.862 1.594.234 1.608.208.725-1.331-1.43-2.49-.537-4.676 2.467-6.039 1.394-.633 2.264-1.161 1.933-1.174-1.944-.072-2.13-.956-1.175-5.576.721-3.483.799-5.133.325-6.85-.393-1.422-.412-2.393-.051-2.616 1.626-1.005-8.143-15.662-11.478-17.221-9.277-4.339-17.802-6.245-21.305-4.763m206.565 1.722c7.08 3.622 3.374 11.272-10.775 22.241-2.812 2.18-5.875 4.657-6.805 5.504-.931.847-2.262 1.54-2.958 1.54-.696 0-3.859 1.393-7.029 3.096-9.716 5.218-23.236 11.851-25.075 12.302-.958.234-1.941.723-2.184 1.086-1.029 1.535-.312-1.496 1.695-7.16l3.091-8.722c.528-1.489 1.15-2.842 1.383-3.008.232-.165.562-1.113.734-2.105.319-1.852 5.081-15.02 6.552-18.119.831-1.75 7.789-4.664 14.145-5.922 12.929-2.56 23.117-2.834 27.226-.733M85.954 22.577c9.965 4.472 11.952 15.119 4.868 26.079-7.289 11.278-32.507 31.502-48.289 38.727l-3.272 1.498.256-2.786c.306-3.338 2.298-11.58 3.508-14.516.477-1.158 1.132-3.188 1.456-4.511 1.178-4.81 4.166-15.705 5.031-18.346.893-2.726 3.128-12.154 3.589-15.143.165-1.066-.221-2.183-1.141-3.309-.765-.934-1.4-2.005-1.412-2.38-.042-1.329 12.964-6.691 14.655-6.042.486.187.985.038 1.108-.331.703-2.107 14.211-1.377 19.643 1.06m243.67 2.333v3.255l-2.556.392c-3.771.577-10.799 2.155-12.181 2.734-.661.277-3.233 1.093-5.714 1.814-8.075 2.345-15.639 6.357-15.639 8.294 0 5.287 4.192 5.205 15.324-.297 4.562-2.255 9.216-3.61 15.29-4.453 2.116-.293 4.349-.674 4.962-.847.614-.172 1.657-.467 2.319-.655 2.168-.615.875 10.768-2.76 24.286l-1.667 6.2-3.533 2.071c-1.943 1.139-3.734 2.07-3.978 2.07-.245 0-2.046 1.354-4.002 3.008-1.957 1.654-3.789 3.007-4.071 3.007-1.289 0-12.832 12.148-16.16 17.007-10.379 15.154-13.166 35.557-5.539 40.555 1.669 1.093 7.828 1.254 9.698.254.691-.37 2.695-.693 4.453-.719l3.198-.046-2.25-.706-2.25-.705 1.949-2.326a190.127 190.127 0 0 1 3.904-4.486c1.075-1.189 1.964-2.443 1.975-2.787.011-.345 1.093-1.702 2.406-3.017 1.312-1.314 2.386-2.727 2.386-3.139 0-.413.568-1.773 1.263-3.024a463.02 463.02 0 0 0 2.556-4.68c.712-1.323 1.564-2.605 1.895-2.848.331-.243.395-.446.143-.451-.253-.005-.019-1.024.519-2.265 4.137-9.537 9.943-25.925 10.797-30.476.341-1.816.727-2.226 2.591-2.743 2.829-.786 3.114-.773 4.249.194 1.57 1.339 6.007.571 6.804-1.178 1.613-3.541-2.398-6.631-7.743-5.963-3.567.446-3.644.35-2.634-3.293 1.277-4.603 3.019-16.607 3.019-20.8 0-5.237-.527-4.925 9.022-5.338 7.533-.325 9.023-.688 9.023-2.202 0-2.973-1.784-3.539-11.141-3.539-8.495 0-8.752-.038-9.356-1.365-.728-1.597-4.092-4.049-5.556-4.049-.827 0-1.015.602-1.015 3.256m48.322 25.578c-10.999 6.707-16.551 18.335-12.535 26.252 1.955 3.854 1.931 4.003-.909 5.599-4.267 2.398-7.746 6.029-8.66 9.037-.461 1.518-1.03 3.236-1.264 3.819-.312.774-.193.97.442.726.646-.248 1.058.521 1.615 3.008 1.783 7.966 9.043 10.433 18.238 6.196 11.165-5.144 12.943-13.22 4.877-22.149-2.828-3.13-2.638-3.398 5.281-7.442 3.743-1.911 7.085-3.816 7.428-4.233.343-.417 1.909-1.62 3.481-2.675 1.571-1.054 2.857-2.032 2.857-2.174 0-.638-10.642 3.693-17.565 7.15l-7.639 3.814-2.135-1.759c-2.556-2.107-2.704-3.673-.632-6.726 4.44-6.543 11.819-12.129 15.189-11.498 2.326.435 2.612-.828.972-4.286-1.727-3.639-5.576-4.771-9.041-2.659m-226.911 5.501c-2.402 3.951-10.453 29.909-10.139 32.694.886 7.857 6.486 8.87 9.741 1.761.808-1.765 2.132-4.092 2.943-5.172.81-1.08 2.153-3.321 2.983-4.98 2.336-4.669 10.24-14.742 10.984-13.998.231.231-.195 3.619-.949 7.529-1.794 9.312.046 16.403 4.257 16.403 1.317 0 4.784-2.291 4.784-3.161 0-.291.709-1.458 1.575-2.594 1.756-2.302.974-2.776-2.442-1.477l-1.546.588.395-3.445c.217-1.895.72-4.393 1.118-5.551 2.09-6.089.529-15.128-2.928-16.947-.707-.372-1.446-.923-1.643-1.224-1.457-2.225-6.992-.099-8.789 3.375-.497.961-1.657 2.381-2.579 3.157-.922.776-1.854 2.12-2.072 2.987-.218.867-.543 1.429-.723 1.249-.18-.18.12-1.863.666-3.74 1.925-6.623-2.545-12.535-5.636-7.454m-36.599 3.109c-5.185 6.515-13.511 24.742-12.845 28.12 2.164 10.97 8.119 9.733 16.965-3.524 1.687-2.528 3.108-4.64 3.158-4.693.05-.053.115.894.145 2.105.186 7.542 4.967 14.06 8.973 12.234 1.291-.588 6.154-7.225 8.011-10.934a76.72 76.72 0 0 1 1.614-3.008c.474-.827.612-1.589.308-1.693-.314-.109-.251-.853.147-1.725.6-1.319.524-1.676-.54-2.538-.681-.551-1.359-1.367-1.508-1.811-.18-.541-.998-.035-2.465 1.524-2.765 2.938-5.278 6.638-4.819 7.097.192.192.053.35-.309.35s-1.117.457-1.676 1.017c-1.213 1.213-.995-.837.981-9.22 1.675-7.106 1.588-7.672-1.704-11.12l-2.857-2.993-.994 1.985c-.547 1.091-1.153 2.472-1.346 3.067-.297.914-.842.611-3.517-1.954-3.207-3.077-4.638-3.648-5.722-2.286m3.524 12.961c-.835 1.559-4.877 6.364-4.877 5.796 0-.803 5.105-7.979 5.302-7.452.104.279-.087 1.025-.425 1.656M322.019 82.13c-1.508 4.287-3.04 8.742-3.404 9.9-.364 1.158-1.249 3.06-1.967 4.227-.718 1.166-1.498 2.996-1.733 4.066-.235 1.07-.796 2.314-1.247 2.765-1.011 1.012-6.3 9.67-6.3 10.315 0 .258-.629 1.306-1.397 2.33-.769 1.023-1.548 2.267-1.732 2.763-.432 1.169-5.595 8.026-6.788 9.017-1.667 1.383-6.228 1.308-6.99-.116-1.073-2.006-.887-16.57.226-17.683.243-.243.441-.828.441-1.302 0-.474.803-1.612 1.785-2.529 1.284-1.199 1.707-2.068 1.51-3.095-.354-1.838.19-3.54 1.132-3.54.406 0 2.274-2.098 4.151-4.662 3.519-4.806 9.691-10.74 15.482-14.885 1.82-1.302 3.444-2.512 3.609-2.689.378-.403 5.67-2.923 5.84-2.781.069.058-1.109 3.613-2.618 7.899m52.964 4.339c5.414 4.13 4.942 5.665-2.953 9.604-9.675 4.827-13.869 1.985-7.703-5.219 1.094-1.278 1.999-2.551 2.011-2.829.028-.665 4.193-3.815 5.037-3.811.36.001 1.984 1.016 3.608 2.255M31.371 88.758c-.223 3.576-.331 3.684-5.055 5.099-2.125.636-2.089.462.5-2.404 1.186-1.312 1.996-2.642 1.802-2.957-.195-.314.392-1.128 1.304-1.808.911-.68 1.657-1.245 1.657-1.256 0-.011-.094 1.486-.208 3.326"/></svg>