<svg xmlns="http://www.w3.org/2000/svg" xml:space="preserve" width="50" height="50" viewBox="0 0 100 100"><path fill="none" d="M63 101H1V1h100v100H63M49 88l4 1c6-5 13-8 18-13 11-10 22-20 20-36-1-9-4-16-12-19-10-4-20-3-28 5-5-6-12-8-19-7-9 0-15 4-19 13-5 11-2 24 6 32 8 10 19 17 30 24z"/><path fill="#EBEBEB" d="M49 88c-11-7-22-14-30-24-8-8-11-21-6-32 4-9 10-13 19-13 7-1 14 1 19 7 8-8 18-9 28-5 8 3 11 10 12 19 2 16-9 26-20 36-5 5-12 8-18 13l-4-1m18-64c-8 0-12 5-16 10l-2-2c-7-11-24-11-31 1-4 8-3 16 2 24 6 10 16 16 26 23 4 3 6 3 10 0 10-7 20-13 26-24 4-7 6-14 2-22-3-7-9-10-17-10z"/><path fill="#e27dd8" d="M67 24c8 0 14 3 17 10 4 8 2 15-2 22-6 11-16 17-26 24-4 3-6 3-10 0-10-7-20-13-26-23-5-8-6-16-2-24 7-12 24-12 31-1l2 2c4-5 8-10 16-10z"/></svg>
