<svg xmlns="http://www.w3.org/2000/svg" clip-rule="evenodd" viewBox="0 0 48 48"><linearGradient id="a" x1="41.706" x2="33.919" y1="13.634" y2="40.953" gradientUnits="userSpaceOnUse"><stop offset="0" stop-color="#55d3fd"/><stop offset=".195" stop-color="#49c3f5"/><stop offset=".722" stop-color="#2d9ee2"/><stop offset="1" stop-color="#2290db"/></linearGradient><path fill="url(#a)" d="m36.16 26.699 1.814-1.89.016-2.585 4.532-2.681s2.202 5.394-1.404 11.266-10.851 5.904-10.851 5.904l5.893-10.014z"/><path fill="#0076cf" d="m18.681 36.809 17.461-10.074-5.876 9.978z"/><linearGradient id="b" x1="31.125" x2="43.218" y1="18.98" y2="18.98" gradientUnits="userSpaceOnUse"><stop offset="0" stop-color="#bca8f7"/><stop offset=".994" stop-color="#9464eb"/></linearGradient><path fill="url(#b)" d="M36 21s.132.136.246.29c1.089 1.472 1.281 3.12.515 4.416-.208.351-1.056 1.281-1.056 1.281s7.962-4.057 6.753-7.795c-1.544-4.776-5.585-7.66-11.968-8.218L36 21z"/><path d="M42.466 19.191c-.07-.217-.151-.426-.232-.635l-.145-.362a9.018 9.018 0 0 0-.695-1.377l-.348-.547.497 3.444c.27 1.555-1.889 3.653-4.483 5.324a3.327 3.327 0 0 1-.29.667c-.208.351-1.056 1.281-1.056 1.281s7.961-4.056 6.752-7.795z" opacity=".05"/><path fill="#0076cf" d="M36 21 19.191 10.973h11.298z"/><linearGradient id="c" x1="20.933" x2="2.423" y1="46.584" y2="23.222" gradientUnits="userSpaceOnUse"><stop offset="0" stop-color="#55d3fd"/><stop offset=".195" stop-color="#49c3f5"/><stop offset=".722" stop-color="#2d9ee2"/><stop offset="1" stop-color="#2290db"/></linearGradient><path fill="url(#c)" fill-rule="evenodd" d="m8.037 23.34 5.537 9.415v2.362L18.138 43s-6.255-.128-9.287-4.755-4.213-9.862-.814-14.905z"/><linearGradient id="d" x1="34.562" x2="-1.055" y1="34.446" y2="41.978" gradientUnits="userSpaceOnUse"><stop offset="0" stop-color="#bca8f7"/><stop offset=".994" stop-color="#563ae2"/></linearGradient><path fill="url(#d)" d="M13.566 33.258v5.944s.359 3.878 5.402 3.878c1.375 0 2.634-.218 3.74-.536 2.496-.717 4.678-2.251 6.305-4.274l1.253-1.557-11.84.096c-1.834-.041-2.868-.502-3.887-1.681a4.033 4.033 0 0 1-.699-1.166l-.274-.704z"/><path d="M17.778 41.978c-2.755-.46-3.167-2.542-3.211-2.837v-.552l.005-3.426-.033-.035a4.033 4.033 0 0 1-.699-1.166l-.273-.703v5.944s.306 3.157 4.083 3.767l.112.02c1.077.196 2.104.079 3.256-.076l-.007-.01-3.233-.926z" opacity=".05"/><linearGradient id="e" x1="6.042" x2="22.351" y1="14.965" y2="14.965" gradientUnits="userSpaceOnUse"><stop offset="0" stop-color="#bca8f7"/><stop offset=".994" stop-color="#563ae2"/></linearGradient><path fill="url(#e)" d="m7.83 23.755 5.84-9.926s1.5-4.181 5.521-2.856h3.16L12.178 6.174 9.09 8.843s-3.686 4.348-2.952 9.614c0 0 .447 3.83 1.692 5.298z"/><path d="M22.156 10.973 11.991 6.41S9.737 8.155 9.092 8.848c-.215.23-.709.975-.741 1.022-.259.383-.608 1.014-.608 1.014l1.779-1.359c.622-.419 1.223-.723 1.977-.82.153-.02.31-.03.466-.03.753 0 1.536.226 2.263.654l2.463 1.512c.646-.133 1.366-.242 2.474.11l2.991.022z" opacity=".05"/><path d="m14.064 39.154.001-3.234.001.003.005-1.49a3.976 3.976 0 0 1-.231-.473l-.273-.703v5.944s.305 3.147 4.065 3.765l.224.036c.57.091 1.149.111 1.724.06l.148-.013-2.032-.579c-3.327-.554-3.629-3.288-3.632-3.316zM22.291 10.96 12.178 6.2 9.117 8.819l-.162.192c-.241.303-.595.861-.595.861l.964-.696c.721-.487 1.448-.829 2.305-.94.174-.022.352-.034.53-.034.842 0 1.712.25 2.517.723l3.01 1.792c.435.009.981.083 1.496.252l3.109-.009zM42.472 19.246c-.017-.055-.059-.209-.077-.263-.198-.613-.712-1.652-.712-1.652l.327 2.298c.422 2.434-3.518 5.125-5.386 6.252-.307.416-.936 1.105-.936 1.105s3.369-1.703 5.391-3.93c1.07-1.177 1.791-2.505 1.393-3.81z" opacity=".07"/><path fill="#0076cf" d="m7.83 23.755 5.736 9.503.104-19.428z"/><linearGradient id="f" x1="9.09" x2="30.489" y1="7.564" y2="7.564" gradientUnits="userSpaceOnUse"><stop offset="0" stop-color="#55d3fd"/><stop offset=".195" stop-color="#49c3f5"/><stop offset=".722" stop-color="#2d9ee2"/><stop offset="1" stop-color="#2290db"/></linearGradient><path fill="url(#f)" d="M19.191 10.973 14.93 8.468c-1.015-.597-2.196-.904-3.364-.754-.806.104-1.695.411-2.476 1.129 0 0 3.878-5.218 10.915-4.644s10.484 6.774 10.484 6.774H19.191z"/></svg>