<svg xmlns="http://www.w3.org/2000/svg" viewBox="0 0 24 24"><path fill="#FFF" d="M12 20a1 1 0 1 1 0 2 1 1 0 1 1 0-2Zm6-1-1 2a1 1 0 0 1-1-2h2ZM8 19a1 1 0 0 1-1 2 1 1 0 1 1 1-2Zm4-13a6 6 0 1 1 0 12 6 6 0 0 1 0-12Zm8 9 1 2a1 1 0 0 1-2-1l1-1ZM5 16a1 1 0 1 1-2 1 1 1 0 0 1 2-1Zm7-8a4 4 0 1 0 0 8 4 4 0 0 0 0-8Zm0 2a2 2 0 1 1 0 4 2 2 0 0 1 0-4Zm-9 1 1 1a1 1 0 0 1-2 0l1-1Zm18 0 1 1a1 1 0 1 1-2 0l1-1Zm0-4a1 1 0 1 1-2 1 1 1 0 1 1 2-1ZM5 6v2a1 1 0 1 1-2-1l2-1Zm12-3a1 1 0 0 1-1 2 1 1 0 1 1 1-2ZM9 4 8 5a1 1 0 0 1-1-2l2 1Zm3-2a1 1 0 0 1 0 2 1 1 0 0 1 0-2Z"/></svg>