<svg xmlns="http://www.w3.org/2000/svg" xml:space="preserve" viewBox="0 0 100 100">

<path d="M1 53h1c3-5 7-9 9-14 2-4 6-6 11-6h2c-2-11-1-12 6-12 3-11 9-20 26-18 6 1 15 8 15 16l9 6 5 1 8-1c4 1 6 2 6 7v6c-2 4-5 6-9 10 1 3 2 8 7 11v5l-9 17v5c2 3 1 6-1 8-7 5-8 7-17 2l-15-7-1 1c-6 8-6 8-16 6-5-2-12-1-16-6-2-3-3-5-3-8s0-5-3-7c-2-2-3-6-4-9 0-4-3-7-7-8l-4-3v-2m79 40 4-4c-3-3-4-6-1-10l9-16c-5-5-6-11-7-17l3-5c6-2 7-6 6-11l-11 1c-3 1-5 1-7-2l-4-5-1 5c-3 10-10 19-16 28-3 3-6 3-9-1-5-9-12-18-15-28l-2-2v4c1 6-1 8-7 8l-5 2-7 10c-1 2-1 3 1 4l6 9c1 4 1 8 5 11l2 6 3 6c5 6 13 4 19 6 4-8 7-10 13-7l15 7 6 1M41 11c-5 4-7 13-3 19l8 16 5 7 7-11 6-11c2-4 3-9 1-14-4-9-13-12-24-6z"/>

<path d="M38 55c3 1 3 4 3 7 0 1-2 3-4 3-3 0-6 0-6-4 0-5 2-6 7-6zM44 19c2-4 7-5 11-4 4 2 4 6 4 10 0 3-2 6-6 6-3 0-8 1-9-4v-8m5 1v5h4l1-3-5-2z"/>

</svg>