<svg xmlns="http://www.w3.org/2000/svg" xml:space="preserve" viewBox="0 0 100 100"><path fill="none" d="M101 64v37H1V63l3 2c3 4 7 8 13 8h19c3 0 3-1 3-4H24l-9-2c-5-2-9-6-9-11-1-7 2-12 8-15 3-2 3-3 4-6 2-8 10-10 15-6 4 2 5 1 7-2 2-6 6-9 11-11 16-5 29 4 30 21 0 3 0 5 4 5 7 1 11 7 11 14 0 6-5 11-11 12l-19 1c-3 0-3 1-3 4h21c6 0 11-2 14-8l3-1M43 51l-6 6c7 5 8-3 12-4v36h4V53c4 2 5 8 12 4L49 46l1-3-7 8z"/><path fill="none" d="M1 45V1h100v46c-4-4-8-9-15-9-1-17-8-24-20-28-12-3-23 2-31 14-6-3-13-4-18 3-3 5-6 10-11 14l-4 4H1z"/><path fill="#0A84FF" d="M1 45h1l4-4c5-4 8-9 11-14 5-7 12-6 18-3 8-12 19-17 31-14 12 4 19 11 20 28 7 0 11 5 15 9v17l-3 1c-3 6-8 8-14 8H63c0-3 0-4 3-4l19-1c6-1 11-6 11-12 0-7-4-13-11-14-4 0-4-2-4-5-1-17-14-26-30-21-5 2-9 5-11 11-2 3-3 4-7 2-5-4-13-2-15 6-1 3-1 4-4 6-6 3-9 8-8 15 0 5 4 9 9 11l9 2h15c0 3 0 4-3 4H17c-6 0-10-4-13-8l-3-2V45z"/><path fill="#0A84FF" d="m44 51 6-8-1 3 16 11c-7 4-8-2-12-4v36h-4V53c-4 1-5 9-12 4l7-6z"/></svg>